<svg xmlns="http://www.w3.org/2000/svg" width="512" height="512" viewBox="0 0 256 256">
  <defs>
    <linearGradient id="g" x1="0" y1="0" x2="1" y2="1">
      <stop offset="0" stop-color="#ffe0ef"/>
      <stop offset="1" stop-color="#ffb3d1"/>
    </linearGradient>
  </defs>
  <g>
    <circle cx="128" cy="120" r="90" fill="url(#g)" stroke="#d9a9b8" stroke-width="3"/>
    <line x1="128" y1="0" x2="128" y2="30" stroke="#d9a9b8" stroke-width="3"/>
    <!-- grid -->
    <g stroke="#f4c8da" stroke-width="1">
      <path d="M38 120h180M38 100h180M38 80h180M38 60h180M38 140h180M38 160h180M38 180h180"/>
      <path d="M128 30v180M108 36v168M88 44v152M68 60v120M148 36v168M168 44v152M188 60v120"/>
    </g>
    <!-- shines -->
    <g stroke="#ffffff" stroke-width="3" stroke-linecap="round" opacity=".8">
      <path d="M90 66l8 0"/>
      <path d="M170 86l12 0"/>
      <path d="M120 170l10 0"/>
      <path d="M150 130l8 0"/>
    </g>
    <!-- sparkles around -->
    <g fill="#ffd6e8" opacity=".9">
      <path d="M30 40 l3 7 l7 3 l-7 3 l-3 7 l-3-7 l-7-3 l7-3z"/>
      <path d="M220 60 l3 7 l7 3 l-7 3 l-3 7 l-3-7 l-7-3 l7-3z"/>
      <path d="M200 190 l3 7 l7 3 l-7 3 l-3 7 l-3-7 l-7-3 l7-3z"/>
    </g>
  </g>
</svg>
